<?xml version="1.0" encoding="UTF-8" standalone="no"?>
<svg
   xmlns:dc="http://purl.org/dc/elements/1.1/"
   xmlns:cc="http://creativecommons.org/ns#"
   xmlns:rdf="http://www.w3.org/1999/02/22-rdf-syntax-ns#"
   xmlns:svg="http://www.w3.org/2000/svg"
   xmlns="http://www.w3.org/2000/svg"
   xmlns:sodipodi="http://sodipodi.sourceforge.net/DTD/sodipodi-0.dtd"
   xmlns:inkscape="http://www.inkscape.org/namespaces/inkscape"
   version="1.1"
   id="svg2"
   xml:space="preserve"
   width="153.52933"
   height="153.52933"
   viewBox="0 0 153.52933 153.52933"
   sodipodi:docname="img.ai"><metadata
     id="metadata8"><rdf:RDF><cc:Work
         rdf:about=""><dc:format>image/svg+xml</dc:format><dc:type
           rdf:resource="http://purl.org/dc/dcmitype/StillImage" /></cc:Work></rdf:RDF></metadata><defs
     id="defs6"><clipPath
       clipPathUnits="userSpaceOnUse"
       id="clipPath18"><path
         d="M 0,115.147 H 115.147 V 0 H 0 Z"
         id="path16" /></clipPath></defs><sodipodi:namedview
     pagecolor="#ffffff"
     bordercolor="#666666"
     borderopacity="1"
     objecttolerance="10"
     gridtolerance="10"
     guidetolerance="10"
     inkscape:pageopacity="0"
     inkscape:pageshadow="2"
     inkscape:window-width="640"
     inkscape:window-height="480"
     id="namedview4" /><g
     id="g10"
     inkscape:groupmode="layer"
     inkscape:label="img"
     transform="matrix(1.3333333,0,0,-1.3333333,0,153.52933)"><g
       id="g12"><g
         id="g14"
         clip-path="url(#clipPath18)"><g
           id="g20"
           transform="translate(115.1475,57.5737)"><path
             d="m 0,0 c 0,-31.797 -25.777,-57.574 -57.574,-57.574 -31.797,0 -57.573,25.777 -57.573,57.574 0,31.797 25.776,57.574 57.573,57.574 C -25.777,57.574 0,31.797 0,0"
             style="fill:#0090b0;fill-opacity:1;fill-rule:nonzero;stroke:none"
             id="path22" /></g><g
           id="g24"
           transform="translate(57.3179)"><path
             d="m 0,0 c -31.797,0 -57.574,25.777 -57.574,57.574 0,31.797 25.777,57.573 57.574,57.573"
             style="fill:#00a5cb;fill-opacity:1;fill-rule:nonzero;stroke:none"
             id="path26" /></g><g
           id="g28"
           transform="translate(57.6461,111.4849)"><path
             d="M 0,0 C 0.329,0.301 0.797,0.389 1.241,0.428 2.026,0.497 2.821,0.454 3.595,0.3 4.773,0.066 5.892,-0.422 7.078,-0.611 8.241,-0.795 9.554,-0.636 10.413,0.242 10.215,0.039 10.015,-0.659 9.826,-0.947 9.477,-1.478 9.044,-1.938 8.665,-2.446 8.609,-2.521 8.552,-2.603 8.547,-2.697 8.543,-2.773 8.574,-2.846 8.605,-2.916 9.073,-3.994 9.628,-5.073 10.011,-6.18 9.572,-6.448 8.961,-6.39 8.469,-6.286 7.944,-6.175 7.441,-5.977 6.922,-5.842 5.674,-5.519 4.183,-5.458 2.897,-5.479 2.337,-5.488 1.767,-5.563 1.264,-5.808 0.604,-6.13 0.094,-6.744 -0.1,-7.452 c -0.121,2.048 0.338,4.112 0.069,6.147 -0.062,0.469 -0.154,0.982 0.092,1.387"
             style="fill:#d1d3d4;fill-opacity:1;fill-rule:nonzero;stroke:none"
             id="path30" /></g><g
           id="g32"
           transform="translate(57.3172,95.5183)"><path
             d="m 0,0 c -0.422,0 -0.764,0.342 -0.764,0.764 v 14.931 c 0,0.423 0.342,0.764 0.764,0.764 0.422,0 0.764,-0.341 0.764,-0.764 V 0.764 C 0.764,0.342 0.422,0 0,0"
             style="fill:#ffffff;fill-opacity:1;fill-rule:nonzero;stroke:none"
             id="path34" /></g><g
           id="g36"
           transform="translate(38.8861,82.7761)"><path
             d="M 0,0 C 0.182,0 0.366,0.053 0.527,0.166 L 18.688,12.793 36.848,0.166 C 37.009,0.053 37.193,0 37.375,0 c 0.293,0 0.581,0.138 0.761,0.397 0.292,0.419 0.188,0.996 -0.232,1.288 L 19.347,14.588 c -0.2,0.139 -0.436,0.186 -0.659,0.154 -0.224,0.032 -0.46,-0.015 -0.66,-0.154 L -0.529,1.685 C -0.949,1.393 -1.052,0.816 -0.761,0.397 -0.581,0.138 -0.293,0 0,0"
             style="fill:#d1d3d4;fill-opacity:1;fill-rule:nonzero;stroke:none"
             id="path38" /></g><g
           id="g40"
           transform="translate(39.2133,72.5529)"><path
             d="m 0,0 -21.924,-11.94 c -0.449,-0.244 -0.614,-0.806 -0.37,-1.254 0.168,-0.309 0.485,-0.483 0.813,-0.483 0.15,0 0.301,0.036 0.442,0.113 L 0.885,-1.625 c 0.449,0.244 0.614,0.806 0.37,1.255 C 1.011,0.078 0.45,0.244 0,0"
             style="fill:#d1d3d4;fill-opacity:1;fill-rule:nonzero;stroke:none"
             id="path42" /></g><g
           id="g44"
           transform="translate(97.8582,60.6132)"><path
             d="m 0,0 -21.924,11.94 c -0.449,0.244 -1.011,0.078 -1.255,-0.37 -0.244,-0.449 -0.079,-1.011 0.37,-1.255 l 21.924,-11.94 c 0.141,-0.076 0.292,-0.113 0.442,-0.113 0.328,0 0.645,0.175 0.813,0.483 C 0.614,-0.806 0.449,-0.244 0,0"
             style="fill:#d1d3d4;fill-opacity:1;fill-rule:nonzero;stroke:none"
             id="path46" /></g><g
           id="g48"
           transform="translate(60.9545,40.8563)"><path
             d="m 0,0 c -0.511,0 -0.925,-0.414 -0.925,-0.925 v -2.714 c 0,-0.511 0.414,-0.925 0.925,-0.925 0.511,0 0.925,0.414 0.925,0.925 v 2.714 C 0.925,-0.414 0.511,0 0,0"
             style="fill:#d1d3d4;fill-opacity:1;fill-rule:nonzero;stroke:none"
             id="path50" /></g><g
           id="g52"
           transform="translate(54.7788,40.8563)"><path
             d="m 0,0 c -0.511,0 -0.925,-0.414 -0.925,-0.925 v -2.714 c 0,-0.511 0.414,-0.925 0.925,-0.925 0.511,0 0.925,0.414 0.925,0.925 v 2.714 C 0.925,-0.414 0.511,0 0,0"
             style="fill:#d1d3d4;fill-opacity:1;fill-rule:nonzero;stroke:none"
             id="path54" /></g><g
           id="g56"
           transform="translate(88.2061,36.1315)"><path
             d="m 0,0 h -6.611 v 10.251 c 0,1.825 1.48,3.305 3.306,3.305 1.825,0 3.305,-1.48 3.305,-3.305 z m -20.868,25.491 h -6.611 v 10.251 c 0,1.825 1.48,3.305 3.305,3.305 1.826,0 3.306,-1.48 3.306,-3.305 z m -12.918,0 h -6.61 v 10.251 c 0,1.825 1.479,3.305 3.305,3.305 1.825,0 3.305,-1.48 3.305,-3.305 z M -54.654,0 h -6.611 v 10.251 c 0,1.825 1.48,3.305 3.306,3.305 1.825,0 3.305,-1.48 3.305,-3.305 z m 41.711,32.269 v 12.327 l -17.678,11.893 v 0.015 l -0.011,-0.007 -0.012,0.007 V 56.489 L -48.321,44.596 V 32.269 L -68.12,21.571 V -5.503 h 19.799 7.925 v 18.886 h 8.715 V -5.503 h 1.037 0.023 1.038 v 18.886 h 8.715 V -5.503 h 7.925 19.798 v 27.074 z"
             style="fill:#ffffff;fill-opacity:1;fill-rule:nonzero;stroke:none"
             id="path58" /></g><path
           d="M 98.341,26.971 H 16.806 v 3.658 h 81.535 z"
           style="fill:#d1d3d4;fill-opacity:1;fill-rule:nonzero;stroke:none"
           id="path60" /><path
           d="M 102.066,23.343 H 13.082 v 3.628 h 88.984 z"
           style="fill:#ffffff;fill-opacity:1;fill-rule:nonzero;stroke:none"
           id="path62" /></g></g></g></svg>
